<svg width="115" height="61" viewBox="0 0 115 61" fill="none" xmlns="http://www.w3.org/2000/svg">
<path d="M0.5 58.1732V58.5836L0.902482 58.6636C1.6711 58.8165 2.4526 58.9438 3.24694 59.0456L3.24896 59.0458C4.08386 59.1494 5.04506 59.2002 6.13008 59.2002C9.4072 59.2002 12.1249 58.1409 14.2394 56.003L14.2416 56.0008C16.3828 53.8092 17.3738 50.4417 17.321 46.0112C17.321 46.0108 17.321 46.0104 17.321 46.0099L17.2035 29.7952L17.2035 29.7926L17.2806 4.4877L22.647 3.29474L23.0385 3.20771V2.80666V1.71513V1.21513H22.5385H2.6056H2.1056V1.71513V2.80666V3.22488L2.51723 3.29879L9.23415 4.50482L9.3112 29.7952L9.31121 29.7956L9.38952 49.1796L9.38954 49.182C9.41534 52.0831 8.87974 53.9908 7.9142 55.0514C6.96173 56.0976 5.19701 56.6946 2.44895 56.6946H1H0.5V57.1946V58.1732ZM31.1814 51.6834L31.1822 51.6843C35.693 56.9946 41.565 59.6518 48.7549 59.6518C56.1058 59.6518 61.9846 56.8776 66.3398 51.3306C70.6811 45.8013 72.8297 38.6074 72.8297 29.7936C72.8297 20.5612 70.6585 13.3408 66.2476 8.20208C61.8361 3.06265 55.9486 0.5 48.6374 0.5C41.3175 0.5 35.4283 3.19481 31.0199 8.58722C26.6179 13.9465 24.4451 21.1974 24.4451 30.2829C24.4451 39.1984 26.673 46.3502 31.1814 51.6834ZM60.0761 9.54052L60.0771 9.54224C62.9052 14.1459 64.35 20.9009 64.35 29.8689C64.35 39.579 62.9792 46.5915 60.3107 50.9883L60.3102 50.989C57.6872 55.3281 53.8306 57.485 48.6766 57.485C43.9776 57.485 40.1834 55.1368 37.279 50.3134C34.3962 45.4576 32.9248 38.2992 32.9248 28.7774C32.9248 19.4694 34.2958 12.8298 36.9544 8.7649C39.6227 4.72493 43.5068 2.70444 48.6766 2.70444C53.4944 2.70444 57.2839 4.95397 60.0761 9.54052ZM76.5713 58.1732V58.6732H77.0713H96.9258C102.38 58.6732 106.7 57.0715 109.818 53.8149C112.945 50.5761 114.5 46.4957 114.5 41.6122C114.5 37.1707 113.215 33.6295 110.591 31.0552C108.392 28.898 105.792 27.4438 102.799 26.6931C105.132 25.9678 107.056 24.6588 108.557 22.7645L108.559 22.7624C110.39 20.4237 111.289 17.4728 111.289 13.9477C111.289 10.3078 110.039 7.2648 107.534 4.85667C105.029 2.39748 101.25 1.21513 96.2993 1.21513H77.0713H76.5713V1.71513V2.80666V3.21486L76.9712 3.29655L82.8383 4.49484L82.9153 28.663V28.6661L82.8382 55.4736L76.9656 56.7436L76.5713 56.8288V57.2323V58.1732ZM103.95 31.7263L103.951 31.7284C105.438 33.9431 106.216 37.2646 106.216 41.7627C106.216 47.0465 105.318 50.8052 103.611 53.1353C101.929 55.431 99.2562 56.6193 95.4769 56.6193H91.7799L90.8464 56.0484L90.8077 28.4206L90.8084 28.4117H97.5133C100.36 28.4117 102.483 29.5169 103.95 31.7263ZM101.348 23.0703L101.346 23.074C100.112 25.2609 98.1598 26.3578 95.3986 26.3578H90.8077L90.8076 26.1453L90.8077 26.1427L90.9236 3.78084L91.6499 3.38194H94.9678C97.6248 3.38194 99.6468 4.19634 101.1 5.77951C102.541 7.34925 103.318 9.96853 103.318 13.7595C103.318 17.7255 102.646 20.8152 101.348 23.0703Z" stroke="white"/>
</svg>
